<svg id="Сгруппировать_1" data-name="Сгруппировать 1" xmlns="http://www.w3.org/2000/svg" width="97.632" height="16" viewBox="0 0 97.632 16">
  <g id="Сгруппировать_123" data-name="Сгруппировать 123" transform="translate(0 0)">
    <path id="Контур_64" data-name="Контур 64" d="M53.3,57.631H47.958L39.15,41.65h5.373Z" transform="translate(-39.15 -41.65)" fill="#143e66"/>
    <path id="Контур_65" data-name="Контур 65" d="M61.525,41.65h2.626L60.6,48.1a4.641,4.641,0,0,1-4.021,2.394H54l3.444-6.432A4.641,4.641,0,0,1,61.525,41.65Z" transform="translate(-41.214 -41.65)" fill="#143e66"/>
    <path id="Контур_66" data-name="Контур 66" d="M117.663,56.787a8.5,8.5,0,0,1-3.918.861c-3.926,0-6.165-1.558-6.165-4.641V41.65h4.787V44.8h4.081a2.884,2.884,0,0,1-2.884,2.884h-1.2v5.261c0,1.1.732,1.722,2.023,1.722a3.659,3.659,0,0,0,1.86-.422Z" transform="translate(-48.66 -41.65)" fill="#143e66"/>
    <path id="Контур_67" data-name="Контур 67" d="M131.013,56.787a8.481,8.481,0,0,1-3.909.861c-3.926,0-6.174-1.558-6.174-4.641V41.65h4.787V44.8H129.8a2.884,2.884,0,0,1-2.884,2.884h-1.2v5.261c0,1.1.74,1.722,2.023,1.722a3.659,3.659,0,0,0,1.86-.422Z" transform="translate(-50.515 -41.65)" fill="#143e66"/>
    <path id="Контур_68" data-name="Контур 68" d="M132.3,51.692c0-3.763,3.685-6.432,8.731-6.432s8.7,2.669,8.7,6.432-3.659,6.44-8.7,6.44S132.3,55.463,132.3,51.692Zm12.769,0c0-2.161-1.722-3.444-4.038-3.444s-4.073,1.3-4.073,3.444,1.722,3.444,4.073,3.444S145.069,53.853,145.069,51.692Z" transform="translate(-52.095 -42.152)" fill="#143e66"/>
    <path id="Контур_69" data-name="Контур 69" d="M85.3,51.692c0-3.763,3.685-6.432,8.731-6.432s8.7,2.669,8.7,6.432-3.659,6.44-8.7,6.44S85.3,55.463,85.3,51.692Zm12.769,0c0-2.161-1.722-3.444-4.038-3.444s-4.073,1.3-4.073,3.444,1.765,3.444,4.073,3.444S98.069,53.853,98.069,51.692Z" transform="translate(-45.563 -42.152)" fill="#143e66"/>
    <path id="Контур_70" data-name="Контур 70" d="M63,51.692c0-3.763,3.685-6.432,8.731-6.432s8.7,2.669,8.7,6.432-3.651,6.44-8.688,6.44S63,55.463,63,51.692Zm12.769,0c0-2.161-1.722-3.444-4.038-3.444s-4.073,1.3-4.073,3.444,1.722,3.444,4.073,3.444,4.047-1.283,4.047-3.444Z" transform="translate(-42.464 -42.152)" fill="#143e66"/>
  </g>
</svg>
