<svg xmlns="http://www.w3.org/2000/svg" width="161.998" height="26.517" viewBox="0 0 161.998 26.517">
  <g id="Logotype_Vootto_print_board" transform="translate(-29.2 -148.8)">
    <path id="Контур_1" data-name="Контур 1" d="M52.653,175.316H43.791L29.2,148.8h8.909Z" fill="#1e1e20"/>
    <path id="Контур_2" data-name="Контур 2" d="M132,148.8h4.349l-5.893,10.686a7.684,7.684,0,0,1-6.734,3.975H119.4l5.869-10.686A7.7,7.7,0,0,1,132,148.8Z" transform="translate(-69.108)" fill="#1e1e20"/>
    <path id="Контур_3" data-name="Контур 3" d="M463.942,173.913a14.2,14.2,0,0,1-6.5,1.4c-6.524,0-10.242-2.6-10.242-7.693V148.8h7.95v5.214h6.781a4.8,4.8,0,0,1-4.794,4.794H455.15v8.745c0,1.824,1.216,2.829,3.367,2.829a6.077,6.077,0,0,0,3.087-.7Z" transform="translate(-320.259 0)" fill="#1e1e20"/>
    <path id="Контур_4" data-name="Контур 4" d="M545.542,173.913a14.2,14.2,0,0,1-6.5,1.4c-6.524,0-10.242-2.6-10.242-7.693V148.8h7.95v5.214h6.781a4.8,4.8,0,0,1-4.794,4.794H536.75v8.745c0,1.824,1.216,2.829,3.367,2.829a6.077,6.077,0,0,0,3.087-.7Z" transform="translate(-382.778 0)" fill="#1e1e20"/>
    <path id="Контур_5" data-name="Контур 5" d="M598.3,181.486c0-6.243,6.126-10.686,14.5-10.686s14.427,4.443,14.427,10.686-6.08,10.686-14.427,10.686S598.3,187.729,598.3,181.486Zm21.185,0c0-3.578-2.876-5.752-6.711-5.752s-6.758,2.151-6.758,5.752c0,3.578,2.946,5.752,6.758,5.752S619.485,185.087,619.485,181.486Z" transform="translate(-436.027 -16.856)" fill="#1e1e20"/>
    <path id="Контур_6" data-name="Контур 6" d="M311.1,181.486c0-6.243,6.126-10.686,14.5-10.686s14.427,4.443,14.427,10.686-6.08,10.686-14.427,10.686S311.1,187.729,311.1,181.486Zm21.208,0c0-3.578-2.876-5.752-6.711-5.752s-6.758,2.151-6.758,5.752c0,3.578,2.946,5.752,6.758,5.752S332.308,185.087,332.308,181.486Z" transform="translate(-215.983 -16.856)" fill="#1e1e20"/>
    <path id="Контур_7" data-name="Контур 7" d="M174.9,181.486c0-6.243,6.126-10.686,14.5-10.686s14.427,4.443,14.427,10.686-6.08,10.686-14.427,10.686S174.9,187.729,174.9,181.486Zm21.185,0c0-3.578-2.876-5.752-6.711-5.752s-6.758,2.151-6.758,5.752c0,3.578,2.946,5.752,6.758,5.752S196.085,185.087,196.085,181.486Z" transform="translate(-111.631 -16.856)" fill="#1e1e20"/>
  </g>
</svg>
