<?xml version="1.0" encoding="utf-8"?>
<!-- Generator: Adobe Illustrator 26.1.0, SVG Export Plug-In . SVG Version: 6.00 Build 0)  -->
<svg version="1.1" id="Layer_1" xmlns="http://www.w3.org/2000/svg" xmlns:xlink="http://www.w3.org/1999/xlink" x="0px" y="0px"
	 viewBox="0 0 549.7 549.7" style="enable-background:new 0 0 549.7 549.7;" xml:space="preserve">
<style type="text/css">
	.st0{fill:#FFFFFF;}
</style>
<g>
	<path class="st0" d="M274.9,8.9c-146.7,0-266,119.3-266,266s119.3,266,266,266s266-119.3,266-266S421.6,8.9,274.9,8.9z
		 M274.9,497.7C152.2,497.7,52,397.5,52,274.9S152.2,52,274.9,52s222.9,100.2,222.9,222.9S397.5,497.7,274.9,497.7z"/>
	<path class="st0" d="M381.3,257.5l-148.4-92.4c-13.4-8.4-30.8,1.1-30.8,17.4v185.4c0,15.7,17.4,25.8,30.8,17.4l148.4-92.4
		C394.1,283.8,394.1,265.3,381.3,257.5L381.3,257.5z"/>
</g>
</svg>
