<svg xmlns="http://www.w3.org/2000/svg" width="87.293" height="87.294" viewBox="0 0 87.293 87.294">
  <g id="prod-icon-2" transform="translate(-1275 -506)">
    <g id="Сгруппировать_3706" data-name="Сгруппировать 3706" transform="translate(1287.408 517.513)">
      <path id="Контур_12853" data-name="Контур 12853" d="M554.275,964.342l.829-1.4a1.433,1.433,0,0,1,2.59.285l.492,1.5,2.046-.673-.492-1.5a3.565,3.565,0,0,0-4.506-2.253,3.458,3.458,0,0,0-1.916,1.554l-.829,1.4a4.606,4.606,0,0,1-7.9,0l-.829-1.4a3.575,3.575,0,0,0-4.895-1.217,3.665,3.665,0,0,0-1.554,1.917l-.492,1.5,2.046.673.492-1.5a1.416,1.416,0,0,1,1.813-.881,1.372,1.372,0,0,1,.751.622l.829,1.4A6.742,6.742,0,0,0,552,966.673a7.529,7.529,0,0,0,2.279-2.331Z" transform="translate(-516.905 -930.091)" fill="#4ebd79"/>
      <path id="Контур_12854" data-name="Контур 12854" d="M543.411,972.106a1.1,1.1,0,0,0,.932-.906l2.59-17.2a3.9,3.9,0,0,1,7.717,0l2.59,17.17a1.072,1.072,0,0,0,.932.906,6.764,6.764,0,0,1,5.879,7.562,5.174,5.174,0,0,1-.1.621l-.259,1.217,2.1.466.259-1.217a8.921,8.921,0,0,0-6.785-10.644h-.026l-2.46-16.419a6.036,6.036,0,0,0-11.939,0l-2.46,16.419a8.921,8.921,0,0,0-6.785,10.644v.026l.259,1.217,2.1-.466-.259-1.217a6.821,6.821,0,0,1,5.153-8.106c.156-.026.363-.052.57-.078Z" transform="translate(-519.197 -948.524)" fill="#4ebd79"/>
      <path id="Контур_12855" data-name="Контур 12855" d="M530.192,967.01l2.02-1.165a3,3,0,0,0,1.01.57v2.331h2.149v-2.331a3.9,3.9,0,0,0,1.01-.57l2.02,1.165,1.062-1.865-2.02-1.165a2.941,2.941,0,0,0,0-1.166l2.02-1.165-1.062-1.865-2.02,1.165a3,3,0,0,0-1.01-.57V958.05h-2.149v2.331a3.9,3.9,0,0,0-1.01.57l-2.02-1.165-1.062,1.865,2.02,1.165a2.941,2.941,0,0,0,0,1.166l-2.02,1.165Zm4.118-4.687a1.062,1.062,0,1,1-1.062,1.062A1.05,1.05,0,0,1,534.309,962.323Z" transform="translate(-529.13 -933.381)" fill="#143e66"/>
      <path id="Контур_12856" data-name="Контур 12856" d="M558.391,969.295l-2.02,1.166a3,3,0,0,0-1.01-.57V967.56h-2.149v2.331a3.9,3.9,0,0,0-1.01.57l-2.02-1.166-1.062,1.865,2.02,1.166a2.942,2.942,0,0,0,0,1.165l-2.02,1.165,1.062,1.865,2.02-1.165a3,3,0,0,0,1.01.57v2.331h2.149v-2.331a3.9,3.9,0,0,0,1.01-.57l2.02,1.165,1.062-1.865-2.02-1.165a2.945,2.945,0,0,0,0-1.165l2.02-1.166Zm-4.118,4.687a1.062,1.062,0,1,1,1.062-1.062A1.05,1.05,0,0,1,554.274,973.982Z" transform="translate(-497.352 -918.263)" fill="#143e66"/>
      <path id="Контур_12857" data-name="Контур 12857" d="M552.662,954.33v2.331a3.9,3.9,0,0,0-1.01.57l-2.02-1.165-1.062,1.865,2.02,1.165a2.935,2.935,0,0,0,0,1.165l-2.02,1.165,1.062,1.865,2.02-1.165a3,3,0,0,0,1.01.57v2.331h2.149v-2.331a3.9,3.9,0,0,0,1.01-.57l2.02,1.165,1.062-1.865-2.02-1.165a2.944,2.944,0,0,0,0-1.165l2.02-1.165-1.062-1.865-2.02,1.165a3,3,0,0,0-1.01-.57V954.33Zm1.062,6.422a1.062,1.062,0,1,1,1.062-1.062A1.067,1.067,0,0,1,553.723,960.752Z" transform="translate(-498.226 -939.294)" fill="#143e66"/>
      <path id="Контур_12858" data-name="Контур 12858" d="M551.044,963.709a1.069,1.069,0,0,0-1.01-.7h-4.247v2.149h1.139a18.074,18.074,0,0,1-15.72,2.1l-.777,1.994a19.257,19.257,0,0,0,6.526,1.062,20.3,20.3,0,0,0,13.829-5.438A1.1,1.1,0,0,0,551.044,963.709Z" transform="translate(-527.063 -925.496)" fill="#4ebd79"/>
      <path id="Контур_12859" data-name="Контур 12859" d="M549.443,964.075a1.117,1.117,0,0,0-1.165-.129L544,966.1l.958,1.916,1.968-.984a18.045,18.045,0,0,1-12.3,10.747l.414,2.1a20.281,20.281,0,0,0,14.735-14.684A1.054,1.054,0,0,0,549.443,964.075Z" transform="translate(-520.387 -924.179)" fill="#4ebd79"/>
      <path id="Контур_12860" data-name="Контур 12860" d="M544.3,963.709a1.038,1.038,0,0,0,.285,1.165,20.3,20.3,0,0,0,13.829,5.438,19.264,19.264,0,0,0,6.526-1.062l-.777-1.994a18.436,18.436,0,0,1-15.72-2.1h1.114V963.01h-4.247A1.094,1.094,0,0,0,544.3,963.709Z" transform="translate(-505.121 -925.496)" fill="#4ebd79"/>
      <path id="Контур_12861" data-name="Контур 12861" d="M557.347,977.777a18.349,18.349,0,0,1-12.275-10.747l1.942.984.958-1.916-4.273-2.15a1.068,1.068,0,0,0-1.424.466.961.961,0,0,0-.078.751,20.322,20.322,0,0,0,14.735,14.684Z" transform="translate(-508.427 -924.181)" fill="#4ebd79"/>
      <path id="Контур_12862" data-name="Контур 12862" d="M543.616,972.245a2.355,2.355,0,0,0-1.657-1.165,2.45,2.45,0,0,0-3.444-.233l-.233.233a2.421,2.421,0,0,0-1.916,2.849c.026.1.052.233.078.337a2.409,2.409,0,0,0,1.5,3.082,1.286,1.286,0,0,0,.337.078,2.45,2.45,0,0,0,3.444.233l.233-.233a2.421,2.421,0,0,0,1.916-2.849c-.026-.1-.052-.233-.078-.337A2.26,2.26,0,0,0,543.616,972.245Zm-1.865,2.641a.271.271,0,0,1,.026.311.245.245,0,0,1-.285.129,1.061,1.061,0,0,0-1.088.622c-.129.285-.388.285-.518,0a1.061,1.061,0,0,0-1.088-.622.3.3,0,0,1-.285-.129.275.275,0,0,1,.026-.311,1.049,1.049,0,0,0,0-1.269.271.271,0,0,1-.026-.311.245.245,0,0,1,.285-.13,1.06,1.06,0,0,0,1.088-.621c.129-.285.388-.285.518,0a1.06,1.06,0,0,0,1.088.621.33.33,0,0,1,.285.13.275.275,0,0,1-.026.311A.923.923,0,0,0,541.752,974.887Z" transform="translate(-517.719 -913.988)" fill="#a4caf5"/>
      <path id="Контур_12863" data-name="Контур 12863" d="M538.656,952.2A2.353,2.353,0,0,0,537,951.03a2.45,2.45,0,0,0-3.444-.233l-.233.233a2.421,2.421,0,0,0-1.916,2.849c.026.1.052.233.078.337a2.409,2.409,0,0,0,1.5,3.082,1.283,1.283,0,0,0,.337.078,2.45,2.45,0,0,0,3.444.233l.233-.233a2.421,2.421,0,0,0,1.916-2.849c-.026-.1-.052-.233-.078-.337A2.26,2.26,0,0,0,538.656,952.2Zm-1.865,2.641a.271.271,0,0,1,.026.311.245.245,0,0,1-.285.13,1.06,1.06,0,0,0-1.088.621c-.129.285-.389.285-.518,0a1.06,1.06,0,0,0-1.088-.621.33.33,0,0,1-.285-.13.275.275,0,0,1,.026-.311,1.049,1.049,0,0,0,0-1.269.271.271,0,0,1-.026-.311.245.245,0,0,1,.285-.13,1.06,1.06,0,0,0,1.088-.621c.129-.285.389-.285.518,0a1.06,1.06,0,0,0,1.088.621.3.3,0,0,1,.285.13.274.274,0,0,1-.026.311A1.013,1.013,0,0,0,536.792,954.837Z" transform="translate(-525.604 -945.862)" fill="#a4caf5"/>
      <path id="Контур_12864" data-name="Контур 12864" d="M555.081,950.275l-2.02,1.166a3,3,0,0,0-1.01-.57V948.54H549.9v2.331a3.892,3.892,0,0,0-1.01.57l-2.02-1.166-1.062,1.865,2.02,1.166a2.942,2.942,0,0,0,0,1.165l-2.02,1.165,1.062,1.865,2.02-1.165a3,3,0,0,0,1.01.57v2.331h2.149V956.9a3.9,3.9,0,0,0,1.01-.57l2.02,1.165,1.062-1.865-2.02-1.165a2.936,2.936,0,0,0,0-1.165l2.02-1.166Zm-4.118,4.688A1.066,1.066,0,0,1,549.9,953.9a1.084,1.084,0,0,1,1.062-1.062,1.062,1.062,0,1,1,0,2.123Z" transform="translate(-502.614 -948.499)" fill="#143e66"/>
      <rect id="Прямоугольник_1084" data-name="Прямоугольник 1084" width="2.149" height="2.149" transform="translate(3.755 51.421)" fill="#4ebd79"/>
      <rect id="Прямоугольник_1085" data-name="Прямоугольник 1085" width="2.149" height="2.149" transform="translate(9.09 57.869)" fill="#4ebd79"/>
      <rect id="Прямоугольник_1086" data-name="Прямоугольник 1086" width="2.149" height="2.149" transform="translate(55.135 35.365)" fill="#4ebd79"/>
      <rect id="Прямоугольник_1087" data-name="Прямоугольник 1087" width="2.149" height="2.149" transform="translate(17.662 10.737)" fill="#4ebd79"/>
      <rect id="Прямоугольник_1088" data-name="Прямоугольник 1088" width="2.149" height="2.149" transform="translate(45.501 58.931)" fill="#4ebd79"/>
      <rect id="Прямоугольник_1089" data-name="Прямоугольник 1089" width="2.149" height="2.149" transform="translate(36.929 56.782)" fill="#4ebd79"/>
      <rect id="Прямоугольник_1090" data-name="Прямоугольник 1090" width="2.149" height="2.149" transform="translate(61.557 30.03)" fill="#4ebd79"/>
    </g>
    <g id="Сгруппировать_5891" data-name="Сгруппировать 5891" transform="translate(1275 506)">
      <g id="Эллипс_7886" data-name="Эллипс 7886" transform="translate(0 0)" fill="none" stroke="#a4caf5" stroke-width="6">
        <ellipse cx="43.647" cy="43.647" rx="43.647" ry="43.647" stroke="none"/>
        <ellipse cx="43.647" cy="43.647" rx="40.647" ry="40.647" fill="none"/>
      </g>
      <line id="Линия_851" data-name="Линия 851" y2="85.181" transform="translate(73.203 13.96) rotate(45)" fill="none" stroke="#a4caf5" stroke-width="6"/>
    </g>
  </g>
</svg>
