<svg xmlns="http://www.w3.org/2000/svg" width="88.522" height="87.224" viewBox="0 0 88.522 87.224">
  <g id="prod-icon-4" transform="translate(1018.521 969.93) rotate(180)">
    <path id="Контур_12867" data-name="Контур 12867" d="M-30.451,586.48a20.762,20.762,0,0,0-8.021-13.99,16.445,16.445,0,0,0-2.611-1.71,20.674,20.674,0,0,0-5.005-22.29,21.3,21.3,0,0,0-14.953-6.031A20.957,20.957,0,0,0-75.9,548.8c-.311.311-.622.653-.933.995a21.067,21.067,0,0,0-29.626,3.078,21.108,21.108,0,0,0-3.3,20.859,21.04,21.04,0,0,0-5.129,29.316A21.043,21.043,0,0,0-97.569,612a18.646,18.646,0,0,0,2.953-.217,21.072,21.072,0,0,0,24,17.658,21.036,21.036,0,0,0,17.844-19.275h1.492a19.732,19.732,0,0,0,2.7-.155,21.116,21.116,0,0,0,18.217-23.6h0Zm-6.839,13.585A17.754,17.754,0,0,1-49.1,606.842a19.685,19.685,0,0,1-3.824,0A20.635,20.635,0,0,0-57.9,594.9a1.635,1.635,0,0,0-2.332.124,1.685,1.685,0,0,0-.155,2.021,17.707,17.707,0,0,1,4.072,9.171,17.965,17.965,0,0,1-8.363-5.254,1.6,1.6,0,0,0-2.238-.062l-.062.062a1.59,1.59,0,0,0-.187,2.269.03.03,0,0,0,.031.031,21.252,21.252,0,0,0,11.1,6.591A17.746,17.746,0,0,1-74.844,626.49a17.736,17.736,0,0,1-16.476-15.295,20.938,20.938,0,0,0,10.787-7.71,1.631,1.631,0,0,0-.311-2.269c-.031-.031-.031-.031-.062-.031a1.671,1.671,0,0,0-2.3.373,17.419,17.419,0,0,1-8.3,6.249,18.248,18.248,0,0,1,4.135-10.57,1.661,1.661,0,0,0,.062-2.332,1.661,1.661,0,0,0-2.332-.062c-.093.093-.155.187-.249.28a20.9,20.9,0,0,0-5.1,13.43,16,16,0,0,1-2.736.218,17.765,17.765,0,0,1-17.844-17.658,17.714,17.714,0,0,1,7.119-14.3,21,21,0,0,0,15.077,10.135h.249a1.664,1.664,0,0,0,1.772-1.523,1.664,1.664,0,0,0-1.523-1.772,17.78,17.78,0,0,1-12.777-8.611,17.412,17.412,0,0,1,7.989-1.834,17.409,17.409,0,0,1,7.71,1.772,1.684,1.684,0,0,0,2.207-.746,1.656,1.656,0,0,0-.746-2.207h0a20.742,20.742,0,0,0-18.466,0,18.928,18.928,0,0,1-1.057-6.031,17.778,17.778,0,0,1,17.782-17.782,17.8,17.8,0,0,1,11.471,4.2,21.049,21.049,0,0,0-3.3,11.285,16.674,16.674,0,0,0,.311,3.3,1.651,1.651,0,0,0,1.9,1.368,1.651,1.651,0,0,0,1.368-1.9A17.335,17.335,0,0,1-76.461,554.8a17.678,17.678,0,0,1,3.917,11.067,1.659,1.659,0,0,0,1.648,1.648,1.658,1.658,0,0,0,1.648-1.648,20.679,20.679,0,0,0-5.378-13.647c.28-.373.56-.746.87-1.088A17.863,17.863,0,0,1-61.1,545.787h.187a17.712,17.712,0,0,1,17.782,17.658,17.9,17.9,0,0,1-1.026,6,20.536,20.536,0,0,0-9.886-1.119,20.485,20.485,0,0,0-7.368,2.363,1.639,1.639,0,0,0-.653,2.238,1.64,1.64,0,0,0,2.238.653,17.455,17.455,0,0,1,14.362-1.088,17.654,17.654,0,0,1-10.166,8.145,1.658,1.658,0,0,0-1.088,2.052,1.606,1.606,0,0,0,1.585,1.181h.466a21,21,0,0,0,12.217-9.885,16.726,16.726,0,0,1,2.021,1.243,17.82,17.82,0,0,1,3.3,24.963ZM-74.72,573.952a11.921,11.921,0,0,0-11.969,11.907,11.921,11.921,0,0,0,11.907,11.969A11.921,11.921,0,0,0-62.813,585.92v-.031A11.954,11.954,0,0,0-74.72,573.952m0,20.58a8.671,8.671,0,0,1-8.7-8.611,8.67,8.67,0,0,1,8.611-8.7,8.671,8.671,0,0,1,8.7,8.611v.062a8.6,8.6,0,0,1-8.611,8.642" transform="translate(1048.709 340.247)" fill="#56bd78"/>
    <path id="Контур_12868" data-name="Контур 12868" d="M-84.313,564.517a11.921,11.921,0,0,0-11.969,11.907,11.921,11.921,0,0,0,11.907,11.969,11.921,11.921,0,0,0,11.969-11.907v-.031a11.954,11.954,0,0,0-11.907-11.938m0,20.58a8.671,8.671,0,0,1-8.7-8.611,8.671,8.671,0,0,1,8.611-8.7,8.671,8.671,0,0,1,8.7,8.611v.063a8.6,8.6,0,0,1-8.611,8.642" transform="translate(1058.604 349.863)" fill="#a4caf5"/>
  </g>
</svg>
