<svg xmlns="http://www.w3.org/2000/svg" width="90" height="87.294" viewBox="0 0 90 87.294">
  <g id="prod-icon-1" transform="translate(-104.63 -40.305)">
    <path id="Контур_11435" data-name="Контур 11435" d="M318.644,62.968a.933.933,0,0,1,0-1.159c.186-.232,4.561-5.646,10.161-5.646s9.975,5.414,10.161,5.646a.933.933,0,0,1,0,1.159C338.78,63.2,334.4,68.6,328.8,68.6s-9.975-5.4-10.161-5.637Z" transform="translate(-174.059 -12.971)" fill="#56bd78"/>
    <path id="Контур_11436" data-name="Контур 11436" d="M469.681,52.37c-3.949-3.949-3.226-10.883-3.189-11.171a.935.935,0,0,1,.816-.825c.3-.028,7.221-.751,11.171,3.2s3.235,10.883,3.2,11.18h0a.925.925,0,0,1-.815.815,15.294,15.294,0,0,1-1.6.075c-2.355,0-6.731-.428-9.577-3.273Z" transform="translate(-295.088 0)" fill="#56bd78"/>
    <path id="Контур_11437" data-name="Контур 11437" d="M143.481,355.394a7.408,7.408,0,0,1-7.4-7.407.927.927,0,1,1,1.854,0,5.548,5.548,0,1,0,5.543-5.544H106.557a.927.927,0,0,1,0-1.854h36.924a7.4,7.4,0,0,1,0,14.8Z" transform="translate(0 -245.602)" fill="#a4caf5" stroke="#a4caf5" stroke-width="2"/>
    <path id="Контур_11438" data-name="Контур 11438" d="M158.363,105.369c-.028-.3-.76-7.221,3.2-11.18S172.444,90.963,172.731,91h0a.927.927,0,0,1,.825.816c.028.3.751,7.221-3.2,11.171h0a10.863,10.863,0,0,1-4.979,2.707,18.157,18.157,0,0,1-4.6.566,15.094,15.094,0,0,1-1.594-.074.935.935,0,0,1-.825-.816Z" transform="translate(-43.072 -41.4)" fill="#56bd78"/>
    <path id="Контур_11439" data-name="Контур 11439" d="M157.463,381.214c3.958,3.958,3.226,10.883,3.2,11.18h0a.935.935,0,0,1-.825.815,14.727,14.727,0,0,1-1.585.075c-2.345,0-6.74-.417-9.586-3.264s-3.273-7.241-3.273-9.586a15.3,15.3,0,0,1,.074-1.594.928.928,0,0,1,.816-.816c.3-.037,7.222-.77,11.181,3.189Z" transform="translate(-32.521 -276.159)" fill="#56bd78"/>
    <path id="Контур_11440" data-name="Контур 11440" d="M345.023,436.362c.028.3.76,7.221-3.2,11.18-2.837,2.846-7.231,3.264-9.577,3.264h0a15.109,15.109,0,0,1-1.594-.074.936.936,0,0,1-.825-.816c-.028-.3-.751-7.221,3.2-11.171,2.846-2.846,7.231-3.273,9.577-3.273a15.122,15.122,0,0,1,1.595.074A.937.937,0,0,1,345.023,436.362Z" transform="translate(-183.315 -323.207)" fill="#56bd78"/>
    <path id="Контур_11441" data-name="Контур 11441" d="M105.64,155.081a.927.927,0,0,1,.927-.928h35.265a5.256,5.256,0,1,0-5.247-5.256.927.927,0,0,1-1.854,0,7.106,7.106,0,1,1,7.1,7.11H106.567a.927.927,0,0,1-.927-.927Z" transform="translate(-0.008 -83.01)" fill="#a4caf5" stroke="#a4caf5" stroke-width="2"/>
    <path id="Контур_11442" data-name="Контур 11442" d="M181.159,308.364a11.913,11.913,0,1,1-23.825,0,.927.927,0,0,1,1.854,0,10.059,10.059,0,1,0,10.058-10.058H106.57a.927.927,0,0,1,0-1.854h62.679a11.926,11.926,0,0,1,11.912,11.913Z" transform="translate(-0.01 -209.502)" fill="#a4caf5" stroke="#a4caf5" stroke-width="2"/>
    <path id="Контур_11443" data-name="Контур 11443" d="M522.224,221.674c-2.846,2.846-7.241,3.273-9.586,3.273a15.3,15.3,0,0,1-1.594-.075.927.927,0,0,1-.816-.816c-.037-.3-.76-7.231,3.189-11.18,2.855-2.855,7.241-3.273,9.586-3.273a15.308,15.308,0,0,1,1.595.075.936.936,0,0,1,.816.825c.037.287.769,7.221-3.19,11.171Z" transform="translate(-330.86 -138.469)" fill="#56bd78"/>
    <path id="Контур_11444" data-name="Контур 11444" d="M105.64,158.506a.927.927,0,0,1,.927-.928h59.86a9.562,9.562,0,1,0-9.558-9.567.927.927,0,0,1-1.854,0,11.417,11.417,0,1,1,11.413,11.421h-59.86a.927.927,0,0,1-.927-.927Z" transform="translate(-0.008 -78.759)" fill="#a4caf5" stroke="#a4caf5" stroke-width="2"/>
  </g>
</svg>
