<svg xmlns="http://www.w3.org/2000/svg" width="310.676" height="50.914" viewBox="0 0 310.676 50.914">
  <g id="prod-logo" transform="translate(0 0)">
    <path id="Контур_64" data-name="Контур 64" d="M84.166,92.5H67.179L39.15,41.65h17.1Z" transform="translate(-39.15 -41.65)" fill="#143e66"/>
    <path id="Контур_65" data-name="Контур 65" d="M77.947,41.65H86.3L75.015,62.172a14.768,14.768,0,0,1-12.8,7.617H54L64.96,49.322A14.768,14.768,0,0,1,77.947,41.65Z" transform="translate(-13.313 -41.65)" fill="#143e66"/>
    <path id="Контур_66" data-name="Контур 66" d="M139.664,89.817a27.043,27.043,0,0,1-12.466,2.74c-12.494,0-19.618-4.959-19.618-14.768V41.65h15.234V51.678H135.8a9.179,9.179,0,0,1-9.179,9.179h-3.808V77.6c0,3.507,2.329,5.48,6.439,5.48a11.644,11.644,0,0,0,5.918-1.343Z" transform="translate(79.91 -41.65)" fill="#143e66"/>
    <path id="Контур_67" data-name="Контур 67" d="M153.014,89.817a26.988,26.988,0,0,1-12.439,2.74c-12.494,0-19.645-4.959-19.645-14.768V41.65h15.234V51.678h12.987a9.179,9.179,0,0,1-9.179,9.179h-3.809V77.6c0,3.507,2.356,5.48,6.439,5.48a11.645,11.645,0,0,0,5.918-1.343Z" transform="translate(103.138 -41.65)" fill="#143e66"/>
    <path id="Контур_68" data-name="Контур 68" d="M132.3,65.727c0-11.973,11.727-20.467,27.783-20.467s27.673,8.494,27.673,20.467-11.645,20.494-27.673,20.494S132.3,77.728,132.3,65.727Zm40.633,0c0-6.877-5.48-10.96-12.85-10.96s-12.96,4.137-12.96,10.96,5.48,10.96,12.96,10.96S172.933,72.6,172.933,65.727Z" transform="translate(122.92 -35.369)" fill="#143e66"/>
    <path id="Контур_69" data-name="Контур 69" d="M85.3,65.727c0-11.973,11.727-20.467,27.782-20.467s27.673,8.494,27.673,20.467-11.644,20.494-27.673,20.494S85.3,77.728,85.3,65.727Zm40.632,0c0-6.877-5.48-10.96-12.85-10.96s-12.96,4.137-12.96,10.96,5.617,10.96,12.96,10.96S125.932,72.6,125.932,65.727Z" transform="translate(41.146 -35.369)" fill="#143e66"/>
    <path id="Контур_70" data-name="Контур 70" d="M63,65.727C63,53.754,74.727,45.26,90.782,45.26s27.673,8.494,27.673,20.467S106.838,86.221,90.81,86.221,63,77.728,63,65.727Zm40.633,0c0-6.877-5.48-10.96-12.85-10.96s-12.96,4.137-12.96,10.96,5.48,10.96,12.96,10.96S103.66,72.6,103.66,65.727Z" transform="translate(2.346 -35.369)" fill="#143e66"/>
  </g>
</svg>
