<svg id="prod-icon-3" xmlns="http://www.w3.org/2000/svg" width="87.294" height="87.294" viewBox="0 0 87.294 87.294">
  <path id="Контур_3311" data-name="Контур 3311" d="M790.985,424.447a.99.99,0,0,0,.454,1.338c.025.025.076.025.1.05l.126,1.187a6.77,6.77,0,0,0-3.206,1.187l-.984-1.111a1.224,1.224,0,0,0,.05-.682,1.3,1.3,0,0,0-2.55.53,1.3,1.3,0,0,0,1.54,1.01,1.1,1.1,0,0,0,.126-.025l.959.985a7.275,7.275,0,0,0-1.767,2.727l-1.262-.4a.968.968,0,0,0-.227-.454,1,1,0,1,0-.076,1.414l.076-.076,1.262.328a7.035,7.035,0,0,0-.151,1.464v.227h0a1.767,1.767,0,1,0,0,3.534,1.778,1.778,0,0,0,.959-.278,8.261,8.261,0,0,0,.682.959L785.355,440a1.179,1.179,0,0,0-.429-.076,1.338,1.338,0,1,0,1.338,1.338,1.132,1.132,0,0,0-.1-.5l1.616-1.717a6.7,6.7,0,0,0,3.459,1.641l-.252,1.161a.986.986,0,0,0-.4.253.893.893,0,1,0,1.262-.05c-.026-.025-.051-.025-.076-.051l.2-1.212c.126,0,.252.025.379.025a6.815,6.815,0,0,0,3.181-.783l.883,1.565a1.02,1.02,0,0,0-.151.555,1.111,1.111,0,1,0,1.111-1.111h-.126l-.959-1.49a6.947,6.947,0,0,0,2.474-3.156l1.363.606a1.107,1.107,0,0,0,.177.48.98.98,0,0,0,1.388.2,1,1,0,0,0,.2-1.389.98.98,0,0,0-1.389-.2l-.076.076-1.439-.53a6.593,6.593,0,0,0,.227-1.742,6.732,6.732,0,0,0-.278-1.894l.959-.3a.769.769,0,0,0,.4.2.891.891,0,1,0-.682-1.06.152.152,0,0,1-.025.1l-.909.353a6.841,6.841,0,0,0-1.818-2.55L798.13,427h.126a1.111,1.111,0,1,0-1.111-1.111.992.992,0,0,0,.1.454l-1.162,1.793A6.814,6.814,0,0,0,792.424,427l-.076-1.237a1.269,1.269,0,0,0,.354-.379.99.99,0,0,0-.454-1.338A.9.9,0,0,0,790.985,424.447Zm30.008-2a.968.968,0,0,1-1.389-.025,1.532,1.532,0,0,1-.177-.253l-1.161-.05a3.336,3.336,0,0,1-3.358,3.257,2.761,2.761,0,0,1-.656-.076l-.1.5a1.077,1.077,0,0,1,.278.3,1.065,1.065,0,0,1-.328,1.49,1.1,1.1,0,0,1-1.515-.328,1.065,1.065,0,0,1,.328-1.489.742.742,0,0,1,.328-.126l.177-.656a3.345,3.345,0,0,1-1.843-2.752l-.934.1a.524.524,0,0,1-.151.252.786.786,0,0,1-1.086.076.769.769,0,1,1,1.01-1.161c.051.05.1.126.152.177l1.035-.05c.025-.126.025-.278.05-.4.227-3.762-3.938-1.616-6.539-3.585a4.293,4.293,0,0,1-1.868-2.651l-1.237.252a.858.858,0,0,1-.177.379,1.086,1.086,0,1,1-.252-1.515.716.716,0,0,1,.228.252l1.338-.177a1.093,1.093,0,0,0-.025-.126,4.2,4.2,0,0,1,1.136-2.878l-1.287-1.641a1.356,1.356,0,0,1-.555.025,1.453,1.453,0,1,1,1.641-1.237,1.247,1.247,0,0,1-.152.429l1.186,1.691a4.236,4.236,0,0,1,2.373-.707,4.341,4.341,0,0,1,2.726.985l1.237-1.262a1.146,1.146,0,0,1-.076-.4,1.086,1.086,0,1,1,1.06,1.111,1.252,1.252,0,0,1-.328-.076l-1.313,1.187c2.651,2.626-.53,7.675,3.535,7.4l-.025.025a2.913,2.913,0,0,1,.656-.076,3.383,3.383,0,0,1,3.307,2.7l1.186-.025a1.274,1.274,0,0,1,.2-.3.968.968,0,0,1,1.388.025A1,1,0,0,1,820.993,422.442Zm13.7,34.57a7.99,7.99,0,1,1-7.978-7.978A8,8,0,0,1,834.695,457.013Zm6.236-2.07a1.5,1.5,0,0,0-2.02.682l-.076.151-1.792.2a10.273,10.273,0,0,0-1.792-4.872l1.691-1.49a1.935,1.935,0,0,0,1.01.051,1.961,1.961,0,1,0-2.323-1.515c.025.076.025.151.051.2l-1.49,1.464a10.249,10.249,0,0,0-4.14-2.651l.606-1.893a1.7,1.7,0,0,0,.707-.353,1.5,1.5,0,1,0-2.121-.1c.025.05.076.076.126.126l-.505,1.893a10.45,10.45,0,0,0-2.2-.227h-.353a2.676,2.676,0,0,0-5.352,0,2.542,2.542,0,0,0,.429,1.439,11.523,11.523,0,0,0-1.439,1.035l-2.474-2.626a1.739,1.739,0,0,0,.1-.631,2.02,2.02,0,1,0-2.02,2.02,1.844,1.844,0,0,0,.757-.151l2.575,2.424a10.326,10.326,0,0,0-2.5,5.226l-1.767-.4a1.3,1.3,0,0,0-.379-.581,1.358,1.358,0,1,0-1.843,1.995,1.358,1.358,0,0,0,1.919-.1.548.548,0,0,0,.076-.126l1.843.3c0,.2-.025.379-.025.581a10.323,10.323,0,0,0,1.187,4.822l-2.373,1.363a1.589,1.589,0,0,0-.833-.227,1.666,1.666,0,1,0,1.666,1.666v-.177L818.108,463a10.506,10.506,0,0,0,4.746,3.736l-.909,2.07a1.631,1.631,0,0,0-.732.278,1.49,1.49,0,1,0,1.767,2.4,1.474,1.474,0,0,0,.3-2.1c-.025-.051-.076-.076-.1-.126l.808-2.171a9.982,9.982,0,0,0,2.625.328,10.663,10.663,0,0,0,2.853-.4l.455,1.439a1.358,1.358,0,0,0,.707,2.247,1.357,1.357,0,1,0,.581-2.651c-.051,0-.1-.025-.152-.025l-.53-1.363a10.315,10.315,0,0,0,3.863-2.752l2.626,1.919V466a1.666,1.666,0,1,0,1.666-1.666,1.5,1.5,0,0,0-.682.151l-2.7-1.742a10.367,10.367,0,0,0,1.717-5.529l1.868-.1a1.688,1.688,0,0,0,.581.53,1.5,1.5,0,0,0,2.02-.682A1.352,1.352,0,0,0,840.93,454.943ZM826.717,465.7a8.685,8.685,0,1,1,8.685-8.685A8.684,8.684,0,0,1,826.717,465.7Z" transform="translate(-770.085 -395.877)" fill="#143e66"/>
  <g id="Эллипс_7886" data-name="Эллипс 7886" transform="translate(0 0)" fill="none" stroke="#56bd78" stroke-width="6">
    <ellipse cx="43.647" cy="43.647" rx="43.647" ry="43.647" stroke="none"/>
    <ellipse cx="43.647" cy="43.647" rx="40.647" ry="40.647" fill="none"/>
  </g>
  <line id="Линия_851" data-name="Линия 851" y2="85.181" transform="translate(73.203 13.96) rotate(45)" fill="none" stroke="#56bd78" stroke-width="6"/>
</svg>
